PathFileType	4	(X/Y/Z)	C:\Users\Basilio\Documents\Thesis Gigler\squatting_fais\c3dfiles\044\SJ_pre4\markers_experimental.trc
DataRate	CameraRate	NumFrames	NumMarkers	Units	OrigDataRate	OrigDataStartFrame	OrigNumFrames
200.000000	200.000000	4	63	mm	200.000000	178	1425
Frame#	Time	FHD			LBHD			RBHD			C7			T10			CLAV			LSHO			LUUPA			LMUPA			LDUPA			LLEP			LMEP			LRAD			LUL			LRFIN			RSHO			RUPA1			RMUPA			RDUPA			RLEP			RMEP			RRAD			RUL			RUFIN			LASI			RASI			USACR			LSACR			LTHI1			LTHI2			LTHI3			LTHI4			LLFC			LMFC			LTIB1			LTIB2			LTIB3			LTIB4			LLMAL			LMMAL			LHEE			LMT1			LMT2			LMT5			RTHI			RTHI2			RTHI3			RTHI4			RLFC			RMFC			RTIB1			RTIB2			RTIB3			RTIB4			RLMAL			RMMAL			RHEE			RMT1			RMT2			RMT5			RSACR			*61			*62			
		X1	Y1	Z1	X2	Y2	Z2	X3	Y3	Z3	X4	Y4	Z4	X5	Y5	Z5	X6	Y6	Z6	X7	Y7	Z7	X8	Y8	Z8	X9	Y9	Z9	X10	Y10	Z10	X11	Y11	Z11	X12	Y12	Z12	X13	Y13	Z13	X14	Y14	Z14	X15	Y15	Z15	X16	Y16	Z16	X17	Y17	Z17	X18	Y18	Z18	X19	Y19	Z19	X20	Y20	Z20	X21	Y21	Z21	X22	Y22	Z22	X23	Y23	Z23	X24	Y24	Z24	X25	Y25	Z25	X26	Y26	Z26	X27	Y27	Z27	X28	Y28	Z28	X29	Y29	Z29	X30	Y30	Z30	X31	Y31	Z31	X32	Y32	Z32	X33	Y33	Z33	X34	Y34	Z34	X35	Y35	Z35	X36	Y36	Z36	X37	Y37	Z37	X38	Y38	Z38	X39	Y39	Z39	X40	Y40	Z40	X41	Y41	Z41	X42	Y42	Z42	X43	Y43	Z43	X44	Y44	Z44	X45	Y45	Z45	X46	Y46	Z46	X47	Y47	Z47	X48	Y48	Z48	X49	Y49	Z49	X50	Y50	Z50	X51	Y51	Z51	X52	Y52	Z52	X53	Y53	Z53	X54	Y54	Z54	X55	Y55	Z55	X56	Y56	Z56	X57	Y57	Z57	X58	Y58	Z58	X59	Y59	Z59	X60	Y60	Z60	X61	Y61	Z61	X62	Y62	Z62	X63	Y63	Z63	

179	0.89	-229.353988647461	1772.724487304688	-903.4287719726565	-350.0173034667969	1714.410278320313	-987.2855224609377	-403.1199340820314	1698.920043945313	-829.9859619140627	-422.2795410156251	1537.751586914063	-908.104187011719	-447.0363769531251	1230.075317382813	-917.9992675781252	-286.3095397949219	1487.816284179688	-901.9480590820315	-321.5684814453126	1532.177856445313	-1083.992553710938	-389.7065429687501	1360.777954101563	-1231.441772460938	-355.8782348632813	1323.392456054688	-1224.750732421875	-396.9471130371095	1299.9296875	-1263.843872070313	-393.4113159179689	1241.141479492188	-1278.613159179688	-461.9667968750001	1230.562622070313	-1229.715454101563	-351.4772949218751	1001.189270019531	-1134.16015625	-310.4645690917969	990.7238769531252	-1188.94873046875	-295.6557006835938	1010.103271484375	-1097.734130859375	-344.7933654785157	1508.283203125	-708.4213867187501	-424.5981750488282	1332.987670898438	-583.6176757812501	-390.4144287109376	1295.312866210938	-585.4369506835939	-432.8298645019532	1269.931030273438	-552.6322021484376	-426.1055908203126	1208.098510742188	-539.4880371093751	-493.4019165039064	1195.488037109375	-593.5886840820314	-359.0523681640626	986.1228637695315	-697.9939575195314	-331.4595031738282	966.5481567382815	-634.0709838867189	-296.5870971679688	983.8633422851565	-734.5852661132814	-260.8346862792969	1033.137573242188	-1029.57421875	-261.8125305175782	1007.370483398438	-808.146667480469	-429.4696044921876	1078.111083984375	-915.7862548828127	-436.0047607421876	1046.6455078125	-943.3718261718752	-364.7647399902344	803.774841308594	-1122.351928710938	-330.3492431640626	726.7310791015626	-1127.859985351563	-283.2785339355469	729.4274902343751	-1121.365478515625	-357.1676940917969	672.8240966796876	-1118.05322265625	-340.0891113281251	513.7715454101564	-1115.072021484375	-326.5088806152344	497.382537841797	-995.2364501953127	-324.6059265136719	331.2806091308594	-1060.163818359375	-356.6103820800782	292.3315429687501	-1134.254028320313	-325.2780761718751	286.9302368164063	-1099.01171875	-343.9075622558594	207.4602508544922	-1075.931274414063	-402.3087158203126	96.08695220947268	-1131.949951171875	-380.8356628417969	98.43672180175784	-1046.744506835938	-459.1908264160157	46.46788024902344	-1083.986328125	-243.1216888427735	61.30110549926759	-1073.201049804688	-246.4262237548829	63.69106292724611	-1118.971069335938	-282.0403747558594	41.00704193115235	-1165.000122070313	-358.9583435058594	748.1879882812501	-730.2178955078126	-315.9235229492188	696.6992797851564	-721.5675659179689	-283.1686096191407	700.4974365234376	-725.1893310546876	-335.0673522949219	615.6804199218751	-735.2513427734376	-330.5636291503907	502.4099121093751	-736.5484008789064	-330.1921997070313	488.761199951172	-858.9436035156252	-294.3428039550782	369.9809570312501	-752.2742309570314	-371.4623107910157	307.9766540527344	-703.2028198242189	-330.2296752929688	296.6903686523438	-719.2734375000001	-323.9312744140626	243.5164337158204	-740.6571655273439	-401.7257690429689	94.95423126220705	-717.7602539062501	-379.2011718750001	98.43511199951175	-800.619323730469	-453.7206420898439	47.59465789794923	-761.9676513671876	-245.0590362548829	61.75354385375978	-773.3897705078127	-237.114974975586	60.82097625732423	-735.1505737304689	-273.7776184082032	38.96758270263673	-683.3210449218751	-435.3284301757814	1048.2099609375	-886.3516845703127	nan	nan	nan	nan	nan	nan	
180	0.895	-229.8666687011719	1772.75341796875	-902.7950439453127	-350.2431640625001	1714.355102539063	-986.994567871094	-403.2385559082032	1698.76416015625	-829.7354736328127	-422.3802185058595	1537.663940429688	-907.9890136718752	-447.1201477050782	1230.082763671875	-917.9361572265627	-286.3313598632813	1487.752685546875	-901.892028808594	-321.7590637207032	1532.26513671875	-1083.887084960938	-389.9059448242189	1360.835693359375	-1231.35107421875	-356.1495971679688	1323.380249023438	-1224.588134765625	-397.1081542968751	1299.897583007813	-1263.779052734375	-393.6217041015626	1241.103637695313	-1278.463500976563	-462.0760192871095	1230.505737304688	-1229.611938476563	-351.4946289062501	1001.215576171875	-1134.158325195313	-310.5695800781251	990.782897949219	-1188.89697265625	-295.7223815917969	1010.163818359375	-1097.714965820313	-344.8891601562501	1508.194580078125	-708.3734130859376	-424.623504638672	1332.875	-583.5547485351564	-390.4537963867189	1295.325073242188	-585.5953369140626	-432.8007202148439	1269.7646484375	-552.5209350585939	-426.1484375000001	1207.950073242188	-539.4153442382814	-493.3829650878907	1195.27734375	-593.4875488281251	-359.0193176269532	986.1231079101565	-697.9782714843751	-331.4097900390626	966.4136352539065	-634.0713500976564	-296.5924377441407	983.7420654296877	-734.5388793945314	-260.9604797363282	1033.107666015625	-1029.5615234375	-261.7579040527344	1007.311584472656	-808.0698242187502	-429.4929504394532	1078.060668945313	-915.7553710937502	-435.9658508300782	1046.593139648438	-943.284851074219	-364.8273925781251	803.7825927734377	-1122.337890625	-330.3285827636719	726.7141113281251	-1127.847900390625	-283.2859802246094	729.4680175781251	-1121.378784179688	-357.1467285156251	672.8168334960939	-1118.011962890625	-340.1654968261719	513.7747192382814	-1115.06787109375	-326.5390319824219	497.4533691406251	-995.2857055664065	-324.6841735839844	331.2971191406251	-1060.1201171875	-356.6404418945313	292.3650512695313	-1134.239868164063	-325.3788146972657	286.5918273925782	-1099.09228515625	-344.0054016113282	207.468490600586	-1075.921264648438	-402.2865295410157	96.08902740478518	-1131.9501953125	-380.8826293945313	98.46039581298831	-1046.735717773438	-459.2158813476564	46.51762008666993	-1083.966918945313	-243.1330261230469	61.28212356567384	-1073.178833007813	-246.4184875488282	63.52682113647462	-1118.9130859375	-281.8706665039063	40.76158142089844	-1164.995971679688	-358.9387817382813	748.2323608398439	-730.2052612304689	-315.8863220214844	696.6590576171876	-721.4757690429689	-283.1139221191407	700.5685424804689	-725.1765136718751	-335.0412902832032	615.6340332031251	-735.1742553710939	-330.4971618652344	502.3878173828126	-736.4937744140626	-330.1901855468751	488.7470092773439	-858.8892822265627	-294.2838134765626	369.9850158691407	-752.2578735351564	-371.3965759277344	307.9322509765626	-703.2468872070314	-330.1967468261719	296.6308593750001	-719.3062133789064	-323.9070434570313	243.5606994628907	-740.7618408203126	-401.7242126464845	94.94329833984376	-717.7778930664064	-379.1261901855469	98.47333526611331	-800.5752563476565	-453.6072998046876	47.58347702026368	-762.0073852539064	-244.9782714843751	61.85010910034181	-773.3848266601565	-237.0900573730469	60.96704101562501	-735.1423339843751	-273.7378234863282	38.97835540771485	-683.3241577148439	-435.3402099609376	1048.135009765625	-886.2623291015627	nan	nan	nan	nan	nan	nan	
181	0.9	-230.0115509033204	1772.705932617188	-902.5501098632815	-350.4609069824219	1714.3388671875	-986.8118286132815	-403.3108825683595	1698.76611328125	-829.6011962890627	-422.5319213867189	1537.629516601563	-907.8870849609377	-447.1968383789064	1230.010375976563	-917.9400634765627	-286.3985900878907	1487.71142578125	-901.834655761719	-322.0962524414063	1532.50048828125	-1083.789428710938	-389.967254638672	1360.902465820313	-1231.289428710938	-356.4025268554688	1323.3330078125	-1224.398803710938	-397.373504638672	1299.895263671875	-1263.669799804688	-393.9033508300782	1241.139770507813	-1278.391967773438	-462.235076904297	1230.478149414063	-1229.467407226563	-351.5482482910157	1001.248352050781	-1134.113403320313	-310.6298522949219	990.8208618164065	-1188.906982421875	-295.7818603515626	1010.167785644531	-1097.696655273438	-344.9714965820313	1508.120361328125	-708.3228149414064	-424.6565551757814	1332.655639648438	-583.5034790039064	-390.4533081054689	1295.189697265625	-585.5719604492189	-432.7881774902345	1269.508666992188	-552.4631958007814	-426.2544555664064	1207.791870117188	-539.3918457031251	-493.4156494140626	1195.048950195313	-593.4121093750001	-358.6103515625001	985.2454223632815	-697.8247680664064	-331.4235229492188	966.3140869140627	-634.1856689453126	-296.5750732421876	983.654724121094	-734.5158081054689	-262.6742858886719	1032.691772460938	-1028.591674804688	-261.7469787597657	1007.302307128906	-808.084899902344	-429.5171508789064	1078.0595703125	-915.6894531250002	-436.0975646972657	1046.586059570313	-943.2506103515627	-364.8115539550782	803.820007324219	-1122.315673828125	-330.5052795410157	726.6912841796876	-1127.598510742188	-283.3611145019532	729.5508422851564	-1121.167602539063	-357.1341857910157	672.7997436523439	-1118.012573242188	-340.1207885742188	513.7604980468751	-1115.060180664063	-326.5694580078126	497.402069091797	-995.210388183594	-324.6554870605469	331.2937927246094	-1060.158447265625	-356.6685791015626	292.3297424316407	-1134.263549804688	-325.3959045410157	286.5621032714844	-1099.146728515625	-343.9132995605469	207.4564819335938	-1075.896606445313	-402.2473144531251	96.09936523437503	-1131.979858398438	-380.8874816894532	98.48661804199222	-1046.779541015625	-459.0749816894532	46.5362892150879	-1084.04052734375	-243.1417083740235	61.30738830566408	-1073.128173828125	-246.4201812744141	63.53526687622072	-1118.928955078125	-281.9503784179688	40.9621810913086	-1165.024536132813	-358.8948669433594	748.1812744140626	-730.0909423828126	-315.8304138183594	696.6975097656251	-721.4508666992189	-283.0339965820313	700.5521850585939	-725.1933593750001	-334.9598083496094	615.6917724609376	-735.2308349609376	-330.4457092285157	502.3737792968751	-736.5086669921876	-330.1087036132813	488.724578857422	-858.9112548828127	-294.2609863281251	369.9786376953126	-752.1434936523439	-371.3816528320313	307.9422607421876	-703.2310180664064	-330.1663513183594	296.6651611328126	-719.2640991210939	-323.8811950683594	243.5671081542969	-740.7445678710939	-401.7566833496095	95.01586151123048	-717.8232421875001	-379.0882568359376	98.43116760253909	-800.5858154296877	-453.6993408203126	47.56269836425782	-761.9221191406251	-245.2211608886719	61.65735626220705	-773.594177246094	-237.1040802001954	60.91995239257814	-735.1923828125001	-273.6949157714844	39.03376770019532	-683.2830200195314	-435.2689514160157	1048.025024414063	-886.1934814453127	nan	nan	nan	nan	nan	nan	
182	0.905	-230.3845977783204	1772.646484375	-902.2185668945315	-350.5865478515626	1714.36572265625	-986.5375976562502	-403.3847656250001	1698.765502929688	-829.476501464844	-422.5816650390626	1537.576904296875	-907.7912597656252	-447.3177795410157	1229.987182617188	-917.872009277344	-286.6488342285157	1487.720336914063	-901.685241699219	-322.1618957519532	1532.463134765625	-1083.681762695313	-390.0665893554689	1360.921997070313	-1231.257202148438	-356.5736389160157	1323.41162109375	-1224.310546875	-397.5452575683595	1299.900024414063	-1263.617919921875	-394.0993652343751	1241.155883789063	-1278.288818359375	-462.3191223144532	1230.511108398438	-1229.40576171875	-351.6109924316407	1001.303527832031	-1134.073486328125	-310.7371826171876	990.8372802734377	-1188.9130859375	-295.8143310546876	1010.187561035156	-1097.694458007813	-345.2101135253907	1508.09375	-708.2143554687501	-424.7297668457032	1332.529541015625	-583.4747924804689	-390.5862426757814	1295.006469726563	-585.5484619140626	-432.8542785644532	1269.316162109375	-552.3820190429689	-426.3084411621095	1207.698608398438	-539.3195800781251	-493.4776306152345	1194.947265625	-593.3696899414064	-358.5541687011719	985.1496582031252	-697.8433837890626	-331.4005126953126	966.287780761719	-634.1851196289064	-296.5298156738282	983.5747680664065	-734.4790649414064	-262.7406921386719	1032.697021484375	-1028.62109375	-261.7094726562501	1007.18798828125	-807.901794433594	-429.4626770019532	1078.11376953125	-915.6839599609377	-436.1540527343751	1046.528686523438	-943.1695556640627	-364.8442382812501	803.7949218750002	-1122.283569335938	-330.5560607910157	726.6849975585939	-1127.551147460938	-283.3760681152344	729.5913085937501	-1121.17919921875	-357.1811218261719	672.7940063476564	-1118.016235351563	-340.1950683593751	513.7792968750001	-1115.030883789063	-326.6068115234376	497.479217529297	-995.2751464843752	-324.6687622070313	331.2731933593751	-1060.083618164063	-356.7320251464844	292.2893371582032	-1134.263427734375	-325.2979125976563	286.9709167480469	-1098.955444335938	-343.9398498535157	207.4507904052735	-1075.92333984375	-402.320770263672	96.10427856445315	-1132.01904296875	-380.9198913574219	98.47963714599612	-1046.769775390625	-459.1939392089845	46.53298568725587	-1084.0439453125	-243.1233673095704	61.25063705444337	-1073.2490234375	-246.3946075439454	63.61415863037111	-1118.9892578125	-281.9566955566407	40.97004318237305	-1165.017700195313	-358.8810119628907	748.1655883789064	-730.0342407226564	-315.8159484863282	696.7055053710939	-721.4163818359376	-282.9885559082032	700.5620117187501	-725.1384277343751	-334.9408569335938	615.5868530273439	-735.1337280273439	-330.4075317382813	502.3846435546876	-736.4472045898439	-330.0885620117188	488.7198486328126	-858.8239746093752	-294.2513732910157	369.9876098632813	-752.2761230468751	-371.3905944824219	307.9113159179688	-703.2481689453126	-330.1681518554688	296.6400146484376	-719.2548217773439	-323.8459472656251	243.5313110351563	-740.7113647460939	-401.7160034179689	95.00403594970705	-717.7924804687501	-379.0931701660157	98.42761230468753	-800.5864868164065	-453.6892089843751	47.55531311035157	-761.9092407226564	-245.2145538330079	61.70755767822267	-773.4937133789065	-237.0527343750001	60.9596519470215	-735.1209716796876	-273.6409301757813	39.10807037353516	-683.2362060546876	-435.2380981445314	1048.0732421875	-886.1586914062502	nan	nan	nan	nan	nan	nan	
